<svg width="430" height="121" viewBox="0 0 430 121" fill="none" xmlns="http://www.w3.org/2000/svg">
<g clip-path="url(#clip0_2_2)">
<path d="M58.69 0C26.31 0 0 26.31 0 58.67C0 91.03 26.31 117.36 58.69 117.36C91.07 117.36 117.36 91.05 117.36 58.67C117.36 26.29 91.04 0 58.69 0ZM63.46 112.12C64.62 100.99 67.83 89.64 73.03 78.3L73.09 78.18C73.27 77.78 73.45 77.36 73.65 76.94C73.69 76.84 73.75 76.76 73.79 76.66C73.79 76.64 73.81 76.64 73.81 76.62C73.81 76.6 73.83 76.6 73.83 76.58C75.94 72.17 78.86 67.47 82.45 63.06C79 67.61 76.67 72.87 74.59 77.28C74.15 78.22 73.71 79.19 73.29 80.15C79.13 79.89 86.21 73.59 90.46 64.2C95.59 52.89 94.67 41.42 88.41 38.59C82.15 35.74 72.93 42.62 67.79 53.93C63.34 63.74 63.44 73.65 67.67 77.96C64.26 85.68 61.73 93.42 60.11 101.13C58.43 96.18 55.96 91.98 52.71 88.55C51.59 87.37 50.44 86.34 49.3 85.48L49.8 79.54C49.84 78.92 49.62 78.28 49.18 77.84L40.58 69.24L30.35 59.51L29.27 60.57L38.96 70.86L40.68 72.69C40.88 72.89 40.86 73.25 40.66 73.45C40.42 73.69 40.08 73.69 39.88 73.49L38.07 71.77L36.45 70.23L27.83 62.05L26.77 63.11L36.44 73.42L38.16 75.23C38.36 75.43 38.34 75.79 38.16 75.97C37.92 76.21 37.56 76.23 37.38 76.03L35.53 74.31L25.3 64.58L24.24 65.62L25.02 66.46L33.93 75.93L33.91 75.95L35.63 77.76C35.83 77.96 35.81 78.32 35.63 78.5C35.39 78.74 35.05 78.76 34.85 78.56L33 76.84L22.77 67.11L21.73 68.15L22.49 68.99L31.4 78.46H31.38L33.1 80.31C33.3 80.51 33.3 80.83 33.1 81.03C32.86 81.27 32.52 81.27 32.34 81.07L30.49 79.35L20.24 69.64L19.2 70.68L28.87 80.99L37.45 89.57C37.91 90.01 38.53 90.25 39.17 90.19L46.37 89.57C47.27 90.25 48.2 91.07 49.08 92.02C53.69 96.87 56.48 103.69 57.4 112.34C28.38 111.66 5.01 87.87 5.01 58.69C5.01 29.51 29.08 5.01 58.69 5.01C88.3 5.01 112.34 29.08 112.34 58.66C112.34 86.66 90.82 109.68 63.46 112.11V112.12Z" fill="black"/>
<path d="M53.13 50.4C53.13 55.72 48.84 60.01 43.52 60.01C38.2 60.01 33.93 55.72 33.93 50.4C33.93 45.08 38.22 40.79 43.52 40.79C48.82 40.79 53.13 45.1 53.13 50.4V50.4Z" fill="black"/>
<path d="M63.68 22.76C58.3 22.76 53.91 27.13 53.91 32.51C53.91 37.89 58.3 42.26 63.68 42.26C69.06 42.26 73.43 37.89 73.43 32.51C73.43 27.13 69.06 22.76 63.68 22.76V22.76ZM63.68 38.24C60.51 38.24 57.92 35.67 57.92 32.5C57.92 29.33 60.51 26.76 63.68 26.76C66.85 26.76 69.42 29.33 69.42 32.5C69.42 35.67 66.83 38.24 63.68 38.24Z" fill="black"/>
<path d="M152.95 0C155.66 0 158.02 0.31 160.02 0.93C162.02 1.55 163.6 2.21 164.77 2.9C165.94 3.59 166.64 4.04 166.88 4.25L163.2 10.25C162.85 9.95 162.22 9.52 161.32 8.97C160.42 8.42 159.32 7.92 158.02 7.48C156.72 7.03 155.28 6.81 153.69 6.81C151.3 6.81 149.41 7.27 148.01 8.2C146.61 9.12 145.9 10.46 145.9 12.22C145.9 13.39 146.27 14.42 147.02 15.31C147.77 16.2 148.84 17.03 150.23 17.8C151.62 18.57 153.29 19.35 155.23 20.15C156.87 20.83 158.46 21.6 160.02 22.47C161.57 23.34 162.97 24.35 164.21 25.52C165.45 26.69 166.44 28.05 167.18 29.59C167.92 31.13 168.29 32.91 168.29 34.92C168.29 36.93 167.86 38.89 166.99 40.52C166.12 42.15 164.93 43.52 163.41 44.63C161.89 45.74 160.14 46.58 158.16 47.16C156.18 47.73 154.07 48.02 151.83 48.02C148.88 48.02 146.23 47.66 143.88 46.95C141.53 46.23 139.63 45.49 138.18 44.7C136.73 43.92 135.89 43.41 135.65 43.17L139.55 36.89C139.83 37.13 140.35 37.47 141.11 37.93C141.87 38.39 142.81 38.87 143.93 39.37C145.05 39.87 146.3 40.29 147.67 40.63C149.04 40.97 150.46 41.14 151.93 41.14C154.76 41.14 156.9 40.53 158.35 39.3C159.8 38.07 160.53 36.49 160.53 34.55C160.53 33.08 160.07 31.8 159.14 30.71C158.21 29.62 156.95 28.63 155.35 27.74C153.75 26.85 151.93 25.98 149.89 25.11C147.81 24.2 145.88 23.17 144.12 22.02C142.35 20.87 140.93 19.48 139.86 17.83C138.79 16.18 138.25 14.17 138.25 11.81C138.25 9.45 138.92 7.38 140.27 5.62C141.61 3.86 143.4 2.48 145.62 1.5C147.84 0.52 150.29 0.03 152.95 0.03V0Z" fill="black"/>
<path d="M172.95 18.35H178.35V6.53H185.79V18.36H192.91V24.68H185.79V37C185.79 38.54 186.05 39.7 186.58 40.47C187.11 41.24 187.86 41.63 188.84 41.63C189.66 41.63 190.31 41.48 190.79 41.17C191.27 40.87 191.56 40.66 191.65 40.54L194.42 45.98C194.28 46.12 193.87 46.35 193.19 46.68C192.51 47.01 191.63 47.31 190.56 47.59C189.48 47.87 188.26 48.01 186.88 48.01C184.45 48.01 182.42 47.29 180.79 45.83C179.16 44.38 178.35 42.11 178.35 39.02V24.67H172.95V18.35V18.35Z" fill="black"/>
<path d="M213.05 48C210.03 48 207.35 47.34 205 46.02C202.65 44.7 200.81 42.9 199.47 40.61C198.13 38.32 197.47 35.74 197.47 32.84C197.47 29.94 198.14 27.33 199.47 25.02C200.8 22.7 202.65 20.87 205 19.53C207.35 18.19 210.04 17.51 213.05 17.51C216.06 17.51 218.74 18.18 221.05 19.53C223.37 20.87 225.18 22.7 226.51 25.02C227.83 27.34 228.49 29.94 228.49 32.84C228.49 35.74 227.83 38.33 226.51 40.61C225.19 42.89 223.37 44.69 221.05 46.02C218.73 47.34 216.07 48 213.05 48V48ZM213.05 41.68C214.73 41.68 216.2 41.29 217.44 40.52C218.68 39.75 219.64 38.7 220.32 37.36C221 36.03 221.34 34.51 221.34 32.8C221.34 31.09 221 29.57 220.32 28.22C219.64 26.87 218.68 25.8 217.44 25.01C216.2 24.21 214.74 23.82 213.05 23.82C211.36 23.82 209.9 24.22 208.65 25.01C207.4 25.8 206.43 26.88 205.74 28.22C205.05 29.56 204.71 31.09 204.71 32.8C204.71 34.51 205.05 36.03 205.74 37.36C206.43 38.69 207.4 39.75 208.65 40.52C209.9 41.29 211.37 41.68 213.05 41.68V41.68Z" fill="black"/>
<path d="M241.97 47.16H234.5V18.35H241.97V23.16H241.79C241.95 22.58 242.4 21.85 243.14 20.97C243.88 20.09 244.9 19.3 246.21 18.58C247.52 17.87 249.1 17.51 250.95 17.51C252.28 17.51 253.48 17.7 254.53 18.07C255.58 18.44 256.33 18.82 256.78 19.19L253.76 25.37C253.46 25 252.89 24.63 252.06 24.26C251.23 23.9 250.21 23.72 248.99 23.72C247.47 23.72 246.19 24.17 245.15 25.05C244.11 25.93 243.32 27 242.78 28.24C242.24 29.48 241.97 30.64 241.97 31.71V47.15V47.16Z" fill="black"/>
<path d="M282.6 47.16V41.83C282.41 42.39 281.88 43.16 281 44.15C280.12 45.14 278.93 46.02 277.42 46.82C275.91 47.61 274.13 48.01 272.07 48.01C269.38 48.01 266.96 47.37 264.81 46.08C262.66 44.79 260.96 43 259.72 40.71C258.48 38.42 257.86 35.78 257.86 32.78C257.86 29.78 258.48 27.14 259.72 24.85C260.96 22.56 262.66 20.76 264.81 19.46C266.96 18.16 269.38 17.51 272.07 17.51C274.08 17.51 275.83 17.86 277.3 18.56C278.77 19.26 279.96 20.07 280.86 20.98C281.76 21.89 282.32 22.69 282.53 23.37V18.35H289.97V47.16H282.6V47.16ZM265.27 32.77C265.27 34.62 265.68 36.23 266.5 37.61C267.32 38.99 268.39 40.05 269.71 40.8C271.03 41.55 272.45 41.92 273.97 41.92C275.61 41.92 277.06 41.53 278.34 40.76C279.62 39.99 280.62 38.92 281.36 37.55C282.1 36.18 282.47 34.59 282.47 32.76C282.47 30.93 282.1 29.34 281.36 27.97C280.62 26.6 279.62 25.53 278.34 24.74C277.07 23.96 275.61 23.56 273.97 23.56C272.45 23.56 271.03 23.94 269.71 24.7C268.39 25.46 267.32 26.53 266.5 27.91C265.68 29.29 265.27 30.9 265.27 32.75V32.77Z" fill="black"/>
<path d="M135.65 59.25H160.6V65.85H143.02V79.08H159.37V85.64H143.02V105.57H135.65V59.25V59.25Z" fill="black"/>
<path d="M175.05 105.57H167.58V76.76H175.05V81.57H174.87C175.03 80.99 175.48 80.26 176.22 79.38C176.96 78.5 177.98 77.71 179.29 76.99C180.6 76.28 182.18 75.92 184.03 75.92C185.36 75.92 186.56 76.11 187.61 76.48C188.66 76.85 189.41 77.23 189.86 77.6L186.84 83.78C186.54 83.41 185.97 83.04 185.14 82.67C184.31 82.31 183.29 82.13 182.07 82.13C180.55 82.13 179.27 82.58 178.23 83.46C177.19 84.34 176.4 85.41 175.86 86.65C175.32 87.89 175.05 89.05 175.05 90.12V105.56V105.57Z" fill="black"/>
<path d="M206.53 106.41C203.51 106.41 200.83 105.75 198.48 104.43C196.13 103.11 194.29 101.31 192.95 99.02C191.61 96.73 190.95 94.15 190.95 91.25C190.95 88.35 191.62 85.74 192.95 83.43C194.28 81.11 196.13 79.28 198.48 77.94C200.83 76.6 203.52 75.92 206.53 75.92C209.54 75.92 212.22 76.59 214.53 77.94C216.85 79.28 218.66 81.11 219.99 83.43C221.31 85.75 221.97 88.35 221.97 91.25C221.97 94.15 221.31 96.74 219.99 99.02C218.67 101.3 216.85 103.1 214.53 104.43C212.21 105.75 209.55 106.41 206.53 106.41ZM200.04 71.08C198.89 71.08 197.91 70.66 197.09 69.83C196.27 69 195.86 68.02 195.86 66.9C195.86 65.78 196.27 64.76 197.09 63.93C197.91 63.1 198.89 62.69 200.04 62.69C201.19 62.69 202.17 63.11 202.99 63.93C203.81 64.76 204.22 65.75 204.22 66.9C204.22 68.05 203.81 69.03 202.99 69.85C202.17 70.67 201.19 71.08 200.04 71.08ZM206.53 100.1C208.21 100.1 209.68 99.71 210.92 98.94C212.16 98.17 213.12 97.12 213.8 95.78C214.48 94.45 214.82 92.93 214.82 91.22C214.82 89.51 214.48 87.99 213.8 86.64C213.12 85.29 212.16 84.22 210.92 83.43C209.68 82.63 208.22 82.24 206.53 82.24C204.84 82.24 203.38 82.64 202.13 83.43C200.88 84.22 199.91 85.3 199.22 86.64C198.53 87.98 198.19 89.51 198.19 91.22C198.19 92.93 198.53 94.45 199.22 95.78C199.91 97.11 200.88 98.17 202.13 98.94C203.38 99.71 204.85 100.1 206.53 100.1ZM213.86 71.08C212.69 71.08 211.7 70.66 210.89 69.83C210.08 69 209.68 68.02 209.68 66.9C209.68 65.78 210.08 64.76 210.89 63.93C211.7 63.1 212.68 62.69 213.86 62.69C215.04 62.69 215.96 63.11 216.79 63.93C217.62 64.76 218.04 65.75 218.04 66.9C218.04 68.05 217.62 69.03 216.79 69.85C215.96 70.67 214.98 71.08 213.86 71.08Z" fill="black"/>
<path d="M251.12 76.75V81.77C250.91 81.09 250.35 80.3 249.46 79.39C248.55 78.47 247.37 77.67 245.89 76.96C244.42 76.26 242.68 75.91 240.66 75.91C237.97 75.91 235.55 76.56 233.4 77.86C231.25 79.16 229.55 80.95 228.31 83.25C227.07 85.54 226.45 88.18 226.45 91.18C226.45 94.18 227.07 96.81 228.31 99.1C229.55 101.4 231.25 103.19 233.4 104.47C235.55 105.76 237.97 106.4 240.66 106.4C242.72 106.4 244.51 106 246.02 105.21C247.53 104.42 248.72 103.53 249.6 102.54C250.47 101.56 251 100.79 251.19 100.23V105.91C251.19 107.67 250.83 109.22 250.12 110.56C249.41 111.91 248.38 112.97 247.03 113.74C245.69 114.51 244.07 114.9 242.17 114.9C240.27 114.9 238.63 114.67 237.37 114.21C236.1 113.76 235.09 113.19 234.31 112.53C233.54 111.86 232.91 111.22 232.42 110.61L227.75 115.25C228.66 116.49 229.86 117.53 231.33 118.39C232.8 119.24 234.48 119.88 236.37 120.32C238.25 120.75 240.29 120.97 242.49 120.97C245.48 120.97 248.2 120.41 250.63 119.3C253.06 118.19 254.99 116.55 256.42 114.39C257.85 112.22 258.56 109.55 258.56 106.37V76.75H251.12V76.75ZM249.95 95.96C249.21 97.33 248.2 98.4 246.93 99.18C245.65 99.95 244.2 100.33 242.56 100.33C241.04 100.33 239.62 99.96 238.3 99.21C236.97 98.46 235.9 97.4 235.09 96.02C234.27 94.64 233.86 93.02 233.86 91.18C233.86 89.34 234.27 87.71 235.09 86.33C235.9 84.95 236.97 83.88 238.3 83.12C239.62 82.36 241.04 81.98 242.56 81.98C244.2 81.98 245.65 82.37 246.93 83.16C248.2 83.94 249.21 85.02 249.95 86.38C250.68 87.75 251.05 89.35 251.05 91.18C251.05 93.01 250.68 94.6 249.95 95.96V95.96Z" fill="black"/>
<path d="M289.41 105.57V100.24C289.22 100.8 288.69 101.57 287.81 102.56C286.93 103.55 285.74 104.43 284.23 105.23C282.72 106.02 280.94 106.42 278.88 106.42C276.19 106.42 273.77 105.78 271.62 104.49C269.47 103.2 267.77 101.41 266.53 99.12C265.29 96.83 264.67 94.19 264.67 91.19C264.67 88.19 265.29 85.55 266.53 83.26C267.77 80.97 269.47 79.17 271.62 77.87C273.77 76.57 276.19 75.92 278.88 75.92C280.89 75.92 282.64 76.27 284.11 76.97C285.58 77.67 286.77 78.48 287.67 79.39C288.57 80.3 289.13 81.1 289.34 81.78V76.76H296.78V105.57H289.41V105.57ZM272.08 91.18C272.08 93.03 272.49 94.64 273.31 96.02C274.13 97.4 275.2 98.46 276.52 99.21C277.84 99.96 279.26 100.33 280.78 100.33C282.42 100.33 283.87 99.94 285.15 99.17C286.43 98.4 287.43 97.33 288.17 95.96C288.91 94.59 289.28 93 289.28 91.17C289.28 89.34 288.91 87.75 288.17 86.38C287.43 85.01 286.43 83.94 285.15 83.15C283.88 82.37 282.42 81.97 280.78 81.97C279.26 81.97 277.84 82.35 276.52 83.11C275.2 83.87 274.13 84.94 273.31 86.32C272.49 87.7 272.08 89.31 272.08 91.16V91.18ZM281.17 73.18C278.85 73.18 276.98 72.54 275.56 71.25C274.13 69.96 273.42 68.3 273.42 66.27C273.42 64.94 273.76 63.75 274.45 62.71C275.14 61.67 276.08 60.86 277.26 60.27C278.44 59.69 279.75 59.39 281.17 59.39C282.59 59.39 283.96 59.68 285.12 60.27C286.28 60.85 287.2 61.67 287.87 62.71C288.55 63.75 288.89 64.94 288.89 66.27C288.89 68.3 288.17 69.97 286.73 71.25C285.29 72.54 283.44 73.18 281.17 73.18V73.18ZM281.17 69.35C282.01 69.35 282.71 69.07 283.28 68.53C283.84 67.98 284.12 67.23 284.12 66.27C284.12 65.31 283.83 64.57 283.26 64.04C282.69 63.51 281.99 63.25 281.17 63.25C280.35 63.25 279.68 63.51 279.08 64.04C278.48 64.56 278.18 65.31 278.18 66.27C278.18 67.23 278.47 68.01 279.06 68.55C279.65 69.09 280.35 69.36 281.17 69.36V69.35Z" fill="black"/>
<path d="M311.65 105.57H304.18V76.76H311.65V81.57H311.47C311.63 80.99 312.08 80.26 312.82 79.38C313.56 78.5 314.58 77.71 315.89 76.99C317.2 76.28 318.78 75.92 320.63 75.92C321.96 75.92 323.16 76.11 324.21 76.48C325.26 76.85 326.01 77.23 326.46 77.6L323.44 83.78C323.14 83.41 322.57 83.04 321.74 82.67C320.91 82.31 319.89 82.13 318.67 82.13C317.15 82.13 315.87 82.58 314.83 83.46C313.79 84.34 313 85.41 312.46 86.65C311.92 87.89 311.65 89.05 311.65 90.12V105.56V105.57Z" fill="black"/>
<path d="M342 106.41C339.29 106.41 336.89 105.77 334.81 104.48C332.73 103.19 331.1 101.4 329.92 99.11C328.74 96.82 328.15 94.18 328.15 91.18C328.15 88.18 328.74 85.54 329.92 83.25C331.1 80.96 332.73 79.16 334.81 77.86C336.89 76.56 339.29 75.91 342 75.91C344.01 75.91 345.8 76.25 347.37 76.94C348.94 77.63 350.19 78.43 351.12 79.34C352.05 80.25 352.61 81.06 352.77 81.76V57.27H360.28V105.55H352.88V100.22C352.55 101.04 351.89 101.93 350.88 102.89C349.87 103.85 348.6 104.67 347.07 105.36C345.54 106.05 343.85 106.39 342 106.39V106.41ZM343.93 100.34C345.57 100.34 347.05 99.95 348.39 99.18C349.72 98.41 350.79 97.34 351.58 95.97C352.37 94.6 352.77 93.01 352.77 91.18C352.77 89.35 352.37 87.76 351.58 86.39C350.79 85.02 349.72 83.95 348.39 83.16C347.06 82.38 345.57 81.98 343.93 81.98C342.43 81.98 341.05 82.36 339.77 83.12C338.49 83.88 337.47 84.95 336.7 86.33C335.93 87.71 335.54 89.32 335.54 91.17C335.54 93.02 335.93 94.63 336.7 96.01C337.47 97.39 338.49 98.45 339.77 99.2C341.04 99.95 342.43 100.32 343.93 100.32V100.34Z" fill="black"/>
<path d="M372.07 92.93C372.12 94.45 372.48 95.82 373.16 97.04C373.84 98.26 374.84 99.21 376.16 99.9C377.48 100.59 379.1 100.93 381.02 100.93C382.68 100.93 384.11 100.7 385.32 100.25C386.53 99.79 387.53 99.24 388.32 98.6C389.11 97.96 389.7 97.35 390.07 96.79L393.4 101.32C392.67 102.3 391.76 103.18 390.66 103.95C389.56 104.72 388.2 105.32 386.57 105.76C384.94 106.2 382.94 106.41 380.55 106.41C377.42 106.41 374.69 105.77 372.38 104.48C370.06 103.19 368.27 101.38 366.99 99.04C365.71 96.7 365.08 93.96 365.08 90.83C365.08 88.02 365.66 85.49 366.83 83.23C368 80.97 369.7 79.19 371.93 77.88C374.16 76.57 376.85 75.92 379.98 75.92C382.9 75.92 385.44 76.5 387.6 77.67C389.75 78.84 391.42 80.52 392.6 82.71C393.78 84.9 394.37 87.54 394.37 90.62C394.37 90.81 394.37 91.19 394.35 91.78C394.34 92.36 394.31 92.75 394.26 92.94H372.05L372.07 92.93ZM387.37 87.46C387.35 86.71 387.09 85.86 386.62 84.9C386.14 83.94 385.37 83.11 384.32 82.39C383.27 81.68 381.87 81.32 380.11 81.32C378.35 81.32 376.85 81.66 375.72 82.35C374.6 83.04 373.77 83.86 373.23 84.81C372.69 85.76 372.38 86.64 372.28 87.46H387.37Z" fill="black"/>
<path d="M418.01 75.92C419.95 75.92 421.83 76.32 423.66 77.11C425.48 77.9 426.99 79.17 428.17 80.92C429.35 82.66 429.94 84.93 429.94 87.71V105.57H422.4V89.08C422.4 86.48 421.79 84.57 420.56 83.34C419.33 82.11 417.75 81.5 415.81 81.5C414.52 81.5 413.3 81.86 412.13 82.59C410.96 83.32 410.01 84.3 409.27 85.54C408.53 86.78 408.16 88.21 408.16 89.82V105.57H400.65V76.76H408.16V81.6C408.37 80.81 408.94 79.97 409.86 79.09C410.79 78.21 411.96 77.46 413.39 76.85C414.82 76.23 416.36 75.92 418.02 75.92H418.01Z" fill="black"/>
</g>
<defs>
<clipPath id="clip0_2_2">
<rect width="429.94" height="120.97" fill="black"/>
</clipPath>
</defs>
</svg>
